<mxfile host="app.diagrams.net" modified="2023-04-26T20:41:28.093Z" agent="Mozilla/5.0 (Windows NT 10.0; Win64; x64) AppleWebKit/537.36 (KHTML, like Gecko) Chrome/112.0.0.0 Safari/537.36" etag="ETumD1NmefeVo8zUzdKb" version="21.2.2" type="github">
  <diagram name="Page-1" id="38b20595-45e3-9b7f-d5ca-b57f44c5b66d">
    <mxGraphModel dx="2625" dy="1373" grid="1" gridSize="7" guides="1" tooltips="1" connect="1" arrows="1" fold="1" page="1" pageScale="1" pageWidth="850" pageHeight="1100" background="none" math="0" shadow="0">
      <root>
        <mxCell id="0" />
        <mxCell id="1" parent="0" />
        <mxCell id="48ef80bc37b76060-138" value="" style="verticalLabelPosition=bottom;html=1;verticalAlign=top;align=center;strokeWidth=1;shape=mxgraph.floorplan.wall;fillColor=#000000;direction=south;rounded=0;shadow=0;comic=0;fontFamily=Verdana;fontSize=12;" parent="1" vertex="1">
          <mxGeometry x="749" y="623" width="10" height="518" as="geometry" />
        </mxCell>
        <mxCell id="48ef80bc37b76060-149" value="" style="verticalLabelPosition=bottom;html=1;verticalAlign=top;align=center;strokeWidth=1;shape=mxgraph.floorplan.wall;fillColor=#000000;rounded=0;shadow=0;comic=0;fontFamily=Verdana;fontSize=12;" parent="1" vertex="1">
          <mxGeometry x="394" y="1248" width="369" height="10" as="geometry" />
        </mxCell>
        <mxCell id="48ef80bc37b76060-150" value="" style="verticalLabelPosition=bottom;html=1;verticalAlign=top;align=center;strokeWidth=1;shape=mxgraph.floorplan.wall;fillColor=#000000;direction=south;rounded=0;shadow=0;comic=0;fontFamily=Verdana;fontSize=12;" parent="1" vertex="1">
          <mxGeometry x="718" y="1219" width="73" height="27" as="geometry" />
        </mxCell>
        <mxCell id="48ef80bc37b76060-151" value="" style="verticalLabelPosition=bottom;html=1;verticalAlign=top;align=center;strokeWidth=1;shape=mxgraph.floorplan.doorLeft;rounded=0;shadow=0;comic=0;fontFamily=Verdana;fontSize=12;rotation=90;flipV=0;flipH=1;" parent="1" vertex="1">
          <mxGeometry x="662" y="1120" width="80" height="113" as="geometry" />
        </mxCell>
        <mxCell id="48ef80bc37b76060-156" value="" style="verticalLabelPosition=bottom;html=1;verticalAlign=top;align=center;strokeWidth=1;shape=mxgraph.floorplan.wall;fillColor=#000000;direction=south;rounded=0;shadow=0;comic=0;fontFamily=Verdana;fontSize=12;" parent="1" vertex="1">
          <mxGeometry x="393" y="623" width="10" height="630" as="geometry" />
        </mxCell>
        <mxCell id="48ef80bc37b76060-157" value="" style="verticalLabelPosition=bottom;html=1;verticalAlign=top;align=center;strokeWidth=1;shape=mxgraph.floorplan.wall;fillColor=#000000;direction=west;rounded=0;shadow=0;comic=0;fontFamily=Verdana;fontSize=12;rotation=50;" parent="1" vertex="1">
          <mxGeometry x="808.09" y="1335.37" width="91" height="45.5" as="geometry" />
        </mxCell>
        <mxCell id="LujUmX66yQC2reF_-Bs--1" value="" style="verticalLabelPosition=bottom;html=1;verticalAlign=top;align=center;shape=mxgraph.floorplan.wall;fillColor=strokeColor;direction=south;rotation=-30;" vertex="1" parent="1">
          <mxGeometry x="455.37" y="1229.53" width="96" height="421.47" as="geometry" />
        </mxCell>
        <mxCell id="LujUmX66yQC2reF_-Bs--2" value="" style="verticalLabelPosition=bottom;html=1;verticalAlign=top;align=center;shape=mxgraph.floorplan.wall;fillColor=strokeColor;direction=west;rotation=-15;" vertex="1" parent="1">
          <mxGeometry x="595.49" y="1550.73" width="413" height="46" as="geometry" />
        </mxCell>
        <mxCell id="LujUmX66yQC2reF_-Bs--3" value="" style="verticalLabelPosition=bottom;html=1;verticalAlign=top;align=center;shape=mxgraph.floorplan.wall;fillColor=strokeColor;direction=south;rotation=-40;" vertex="1" parent="1">
          <mxGeometry x="962.02" y="1435" width="14.59" height="95" as="geometry" />
        </mxCell>
        <mxCell id="LujUmX66yQC2reF_-Bs--4" value="" style="verticalLabelPosition=bottom;html=1;verticalAlign=top;align=center;shape=mxgraph.floorplan.doorRight;aspect=fixed;direction=north;rotation=-45;" vertex="1" parent="1">
          <mxGeometry x="896" y="1351" width="85" height="80" as="geometry" />
        </mxCell>
        <mxCell id="LujUmX66yQC2reF_-Bs--6" value="" style="verticalLabelPosition=bottom;html=1;verticalAlign=top;align=center;shape=mxgraph.floorplan.doorRight;aspect=fixed;direction=south;rotation=45;" vertex="1" parent="1">
          <mxGeometry x="770" y="1204" width="105.88" height="99.65" as="geometry" />
        </mxCell>
        <mxCell id="LujUmX66yQC2reF_-Bs--7" value="" style="verticalLabelPosition=bottom;html=1;verticalAlign=top;align=center;shape=mxgraph.floorplan.wall;fillColor=strokeColor;" vertex="1" parent="1">
          <mxGeometry x="403" y="434" width="353" height="385" as="geometry" />
        </mxCell>
        <mxCell id="LujUmX66yQC2reF_-Bs--8" value="" style="verticalLabelPosition=bottom;html=1;verticalAlign=top;align=center;shape=mxgraph.floorplan.wall;fillColor=strokeColor;rotation=0;" vertex="1" parent="1">
          <mxGeometry x="462" y="1324.15" width="399" height="73" as="geometry" />
        </mxCell>
        <mxCell id="LujUmX66yQC2reF_-Bs--9" value="" style="verticalLabelPosition=bottom;html=1;verticalAlign=top;align=center;shape=mxgraph.floorplan.sink_1;rotation=-15;" vertex="1" parent="1">
          <mxGeometry x="609" y="1575" width="40" height="35" as="geometry" />
        </mxCell>
      </root>
    </mxGraphModel>
  </diagram>
</mxfile>
